<?xml version="1.0" encoding="UTF-8"?>
<svg version="1.1" xmlns="http://www.w3.org/2000/svg" width="480" height="337">
<path d="M0 0 C1.815231 1.815231 1.12618716 4.63270431 1.12698364 7.07385254 C1.12854363 7.71511912 1.13010362 8.3563857 1.13171089 9.0170846 C1.13572244 11.18133449 1.13253066 13.34551512 1.12939453 15.50976562 C1.1307485 17.05506939 1.13252841 18.60037283 1.13470459 20.14567566 C1.1392794 24.35423505 1.13748917 28.56277004 1.1343255 32.77132988 C1.13180215 37.16579125 1.13413937 41.56025047 1.13571167 45.95471191 C1.13753344 53.33585995 1.13512687 60.71699801 1.13037109 68.09814453 C1.12492846 76.6442738 1.12669111 85.19037921 1.1321975 93.73650789 C1.13672842 101.06047664 1.13737928 108.38443818 1.13475883 115.70840788 C1.13319594 120.08863434 1.13300261 124.46884957 1.13629532 128.84907532 C1.13917374 132.96611465 1.13719889 137.08312309 1.13140106 141.20015907 C1.1300733 142.71554322 1.13046784 144.23092995 1.13266373 145.7463131 C1.13537463 147.80629357 1.13199488 149.86617348 1.12698364 151.92614746 C1.12660662 153.08169884 1.12622959 154.23725021 1.12584114 155.4278183 C1 158 1 158 0 159 C-1.90872889 159.29973972 -3.82647389 159.54228887 -5.74609375 159.76171875 C-6.96312988 159.90778564 -8.18016602 160.05385254 -9.43408203 160.2043457 C-10.41226898 160.32140366 -10.41226898 160.32140366 -11.41021729 160.44082642 C-54.41558227 165.6735882 -95.73110636 179.30777956 -129 208 C-129.80308594 208.68191406 -130.60617187 209.36382812 -131.43359375 210.06640625 C-142.32212881 219.56202419 -151.12592826 229.94586549 -159 242 C-159.33 241.34 -159.66 240.68 -160 240 C-160.66 240 -161.32 240 -162 240 C-163.48801744 238.1768712 -164.87280187 236.34203693 -166.25 234.4375 C-179.50187187 216.73061793 -195.29069535 202.6690257 -214 191 C-215.09699219 190.31164062 -216.19398438 189.62328125 -217.32421875 188.9140625 C-249.14836815 169.85723457 -284.71369814 162.53578773 -321 158 C-321 106.19 -321 54.38 -321 1 C-309.56318958 1 -299.41958678 1.2807134 -288.3125 3.125 C-287.62544983 3.23637299 -286.93839966 3.34774597 -286.23052979 3.4624939 C-260.31212234 7.68532372 -235.11834539 15.42153816 -212 28 C-211.09628662 28.47904785 -211.09628662 28.47904785 -210.17431641 28.96777344 C-190.85433017 39.22939999 -170.98135465 54.70368991 -160 74 C-159.61070312 73.33355469 -159.22140625 72.66710937 -158.8203125 71.98046875 C-151.7129489 60.27133286 -142.84637438 51.2843595 -132 43 C-131.16082031 42.34515625 -130.32164062 41.6903125 -129.45703125 41.015625 C-109.42093501 25.85972769 -86.16223218 15.57938717 -62 9 C-61.17322754 8.77473633 -60.34645508 8.54947266 -59.49462891 8.31738281 C-40.49149714 3.25325228 -19.76452737 -0.73984862 0 0 Z " fill="#195A6F" transform="translate(400,40)"/>
<path d="M0 0 C11.43681042 0 21.58041322 0.2807134 32.6875 2.125 C33.37455017 2.23637299 34.06160034 2.34774597 34.76947021 2.4624939 C60.68787766 6.68532372 85.88165461 14.42153816 109 27 C109.90371338 27.47904785 109.90371338 27.47904785 110.82568359 27.96777344 C129.26426609 37.7612508 152.50819171 54.13896594 161 74 C161.36914349 77.31515312 161.36914349 77.31515312 161.36076355 80.98556519 C161.36332682 81.66447787 161.3658901 82.34339056 161.36853105 83.04287636 C161.37344986 85.30470921 161.3570084 87.56586596 161.34057617 89.82763672 C161.33972948 91.45411666 161.34020586 93.08059775 161.34190369 94.70707703 C161.34276344 99.11370686 161.32514093 103.52009106 161.30418181 107.92666388 C161.28541169 112.53509109 161.28366431 117.1435241 161.28010559 121.75198364 C161.27078612 130.4747908 161.24617364 139.19748499 161.21605712 147.92024243 C161.1825101 157.85246203 161.16602634 167.78468706 161.15097082 177.71694922 C161.11962401 198.14469584 161.06686538 218.5723408 161 239 C160.34 239 159.68 239 159 239 C157.51198256 237.1768712 156.12719813 235.34203693 154.75 233.4375 C141.49812813 215.73061793 125.70930465 201.6690257 107 190 C105.90300781 189.31164062 104.80601562 188.62328125 103.67578125 187.9140625 C71.85163185 168.85723457 36.28630186 161.53578773 0 157 C0 105.19 0 53.38 0 0 Z " fill="#5BAD41" transform="translate(79,41)"/>
<path d="M0 0 C0.0233836 15.65554307 0.04100599 31.3110814 0.05181217 46.96663761 C0.05696353 54.23614652 0.0639841 61.50564455 0.07543945 68.77514648 C0.08542176 75.11289539 0.09186187 81.45063642 0.09408849 87.78839296 C0.09538958 91.1426662 0.09843725 94.49691693 0.10573006 97.85118294 C0.11298966 101.60010233 0.11398885 105.3489751 0.11352539 109.09790039 C0.11712067 110.20417282 0.12071594 111.31044525 0.12442017 112.45024109 C0.11733924 117.74412441 -0.06739689 122.78526957 -1 128 C-0.25129639 127.85900879 0.49740723 127.71801758 1.26879883 127.57275391 C60.15419897 116.56133288 122.29295679 116.56131684 173.79101562 151.80615234 C179.46380264 155.82932792 184.74260463 160.235645 189.828125 164.98046875 C191.73204605 166.75084138 193.67891151 168.41385768 195.6875 170.0625 C199.55031463 173.32749808 202.76504415 177.12591914 206 181 C209.04265916 180.68405796 209.98224639 180.01896781 212.11328125 177.7421875 C212.83902344 176.79601562 213.56476563 175.84984375 214.3125 174.875 C238.97182068 143.82104186 281.18083563 126.8811969 319.76098633 122.25 C320.49986084 122.1675 321.23873535 122.085 322 122 C322.79752686 121.9071875 323.59505371 121.814375 324.41674805 121.71875 C332.66021789 120.8566073 340.90709261 120.75781387 349.1875 120.75 C350.30674866 120.74848938 350.30674866 120.74848938 351.4486084 120.74694824 C372.56571383 120.76609544 392.11806337 124.20328425 413 128 C413.33 85.76 413.66 43.52 414 0 C426.74776206 5.09910483 426.74776206 5.09910483 429 7 C429.61523914 9.61804485 429.61523914 9.61804485 429.60127258 12.82756042 C429.61158257 14.65120369 429.61158257 14.65120369 429.62210083 16.51168823 C429.60440515 17.86090702 429.5862311 19.2101196 429.56762695 20.55932617 C429.56621676 21.97846934 429.5670079 23.39761616 429.56983948 24.8167572 C429.57127621 28.67214703 429.54184591 32.52676172 429.50696969 36.38197112 C429.47574846 40.4098251 429.47277882 44.43769615 429.46684265 48.46565247 C429.45129166 56.09432362 429.41024649 63.72263722 429.3600952 71.35115081 C429.30424055 80.03540606 429.27672505 88.71967824 429.25161803 97.40406835 C429.19933152 115.26958174 429.11136511 133.13476214 429 151 C421.35169181 149.93590173 421.35169181 149.93590173 418.00390625 148.94921875 C417.29234375 148.7471582 416.58078125 148.54509766 415.84765625 148.33691406 C415.09355469 148.12260742 414.33945312 147.90830078 413.5625 147.6875 C405.93821128 145.60178204 398.29712442 144.04131707 390.5 142.75 C389.52232666 142.58717529 388.54465332 142.42435059 387.53735352 142.2565918 C358.26424989 137.58569491 325.97376714 137.65779386 297 144 C295.99259766 144.21962402 294.98519531 144.43924805 293.94726562 144.66552734 C265.46018152 151.0955992 238.42398227 162.23907023 218.95605469 184.70996094 C215.16683856 189.05524652 212.92286545 190.71157018 207.25 191.5625 C201.65356009 191.39698607 198.7065897 187.83367278 195 184 C163.09116789 151.0135713 116.96466845 139.75023989 72.26879883 138.95117188 C45.70869832 138.75789569 19.66035832 142.05739549 -5.82617188 149.4909668 C-8.84358649 150.19753794 -11.93210935 150.56172991 -15 151 C-15 103.15 -15 55.3 -15 6 C-3 0 -3 0 0 0 Z " fill="#1D5C70" transform="translate(33,124)"/>
<path d="M0 0 C7 0 7 0 18 3 C18 52.83 18 102.66 18 154 C4 153 4 153 -1.33203125 152.453125 C-8.76927351 151.76330958 -16.22445333 151.75591549 -23.6875 151.75 C-24.45734222 151.74932526 -25.22718445 151.74865051 -26.02035522 151.74795532 C-39.52820237 151.76665094 -52.68312151 152.59589519 -66 155 C-66.90395508 155.16097168 -67.80791016 155.32194336 -68.73925781 155.48779297 C-90.45885763 159.52099015 -110.82307693 167.11048154 -130 178 C-133.33203125 179.8203125 -133.33203125 179.8203125 -136 181 C-136.66 180.67 -137.32 180.34 -138 180 C-101.53208464 143.71534049 -49.39816525 133 0 133 C0 89.11 0 45.22 0 0 Z " fill="#1E5B71" transform="translate(414,79)"/>
<path d="M0 0 C0 43.56 0 87.12 0 132 C10.23 132.66 20.46 133.32 31 134 C67.64562292 138.33676011 108.6691162 150.71162951 135 178 C131.2969278 176.58965024 127.74568892 174.95002116 124.1784668 173.23388672 C85.27989981 154.54967086 39.6780654 145.68653315 -3.36328125 152.53515625 C-6.40117488 152.92345844 -9.17735193 153.04761855 -12.22729492 153.02905273 C-13.12260422 153.02485825 -14.01791351 153.02066376 -14.94035339 153.01634216 C-15.62003677 153.01094925 -16.29972015 153.00555634 -17 153 C-17.91608221 121.09737151 -18.13017614 89.21928813 -18.06866455 57.30474854 C-18.05818497 51.2617632 -18.05381586 45.21877317 -18.04882812 39.17578125 C-18.03830212 27.45050922 -18.02138159 15.72525693 -18 4 C-16.75108386 3.51801537 -15.50081192 3.03954323 -14.25 2.5625 C-13.55390625 2.29566406 -12.8578125 2.02882813 -12.140625 1.75390625 C-7.69448703 0.18802189 -4.97503741 0 0 0 Z " fill="#5EAB45" transform="translate(65,79)"/>
<path d="M0 0 C0.92232422 0.57234375 0.92232422 0.57234375 1.86328125 1.15625 C3.27029838 2.0619162 4.64073977 3.02412086 6 4 C2.50794062 7.59476701 -1.04033675 10.92026191 -5 14 C-5.66 14 -6.32 14 -7 14 C-7 14.66 -7 15.32 -7 16 C-9.57586828 15.50464072 -11.19973978 14.87196168 -13.4375 13.4375 C-19.83649003 10.85545139 -27.59728409 10.90155344 -34.1875 13.0625 C-40.13782302 15.71413648 -46.37262004 19.55893005 -50 25 C-50.66 25 -51.32 25 -52 25 C-52.268125 25.70125 -52.53625 26.4025 -52.8125 27.125 C-54 30 -54 30 -55.5 32.75 C-59.54566866 41.51561542 -60.62802051 52.44863219 -59 62 C-57.27608051 66.04400711 -55.10427614 68.91480752 -52 72 C-51.13375 72.86625 -50.2675 73.7325 -49.375 74.625 C-40.87031424 78.08987198 -31.28100953 76.39494764 -23 73 C-22.07445312 72.70222656 -21.14890625 72.40445313 -20.1953125 72.09765625 C-16.94218589 70.72913132 -15.22003959 69.77393277 -13 67 C-11.48394889 61.14756587 -11.78640602 54.99319579 -12 49 C-14.04194335 49.62409545 -16.08354215 50.24931829 -18.125 50.875 C-19.26195312 51.22304687 -20.39890625 51.57109375 -21.5703125 51.9296875 C-23.78716851 52.62150817 -25.9920751 53.35344199 -28.1796875 54.1328125 C-31 55 -31 55 -35 55 C-35 50.71 -35 46.42 -35 42 C-27.41467613 39.18277207 -19.80279313 36.6059612 -12.0625 34.25 C-11.04865234 33.93417969 -10.03480469 33.61835937 -8.99023438 33.29296875 C-7.5274707 32.84630859 -7.5274707 32.84630859 -6.03515625 32.390625 C-5.1625415 32.12282227 -4.28992676 31.85501953 -3.39086914 31.57910156 C-1 31 -1 31 3 31 C3.27280923 36.99531662 3.47189723 42.98699644 3.60424805 48.98706055 C3.65942742 51.02546117 3.73439718 53.06342902 3.82983398 55.1003418 C4.60089217 71.98527898 4.60089217 71.98527898 0.78808594 76.78369141 C-2.08367347 78.63677587 -4.78966904 79.84564866 -8 81 C-9.4303501 81.75542634 -10.85121603 82.52934047 -12.2578125 83.328125 C-13.54285123 83.9767836 -14.83190494 84.61755419 -16.125 85.25 C-17.14956299 85.75575562 -17.14956299 85.75575562 -18.19482422 86.27172852 C-30.11915293 92.06107651 -43.80097952 95.84681317 -56.9375 91.75 C-65.997414 88.17893901 -72.15201526 81.86311682 -76.1875 73.0859375 C-81.24955729 60.09007888 -79.28995109 46.88321761 -75 34 C-71.53068963 26.19668793 -65.93832916 20.04036231 -60 14 C-59.37351562 13.360625 -58.74703125 12.72125 -58.1015625 12.0625 C-44.21145225 -1.06570547 -17.77542351 -11.61484627 0 0 Z " fill="#EAEDEF" transform="translate(361,88)"/>
<path d="M0 0 C11.11666667 1.11166667 11.11666667 1.11166667 15.25 3.125 C28.18187895 8.88359732 42.11429818 12.5739003 55.72143555 16.40234375 C59.06474068 17.35697354 61.86271015 18.43135508 65 20 C65 25.28 65 30.56 65 36 C60.111427 35.57117781 56.55693711 34.85399318 52.04077148 32.83569336 C48.0740197 31.21131349 43.9279906 30.11983418 39.8125 28.9375 C38.0471665 28.42927853 36.28280106 27.91767956 34.51953125 27.40234375 C33.74714111 27.18054443 32.97475098 26.95874512 32.17895508 26.73022461 C30 26 30 26 28.0925293 24.97485352 C25.46054757 23.63513174 25.46054757 23.63513174 20 23 C20.33 30.26 20.66 37.52 21 45 C23.475 45.825 25.95 46.65 28.5 47.5 C40 51.33333333 51.5 55.16666667 63 59 C63 64.61 63 70.22 63 76 C58.57696485 76 56.84298437 75.64512581 53.02587891 73.88671875 C49.02250959 72.13446069 44.83557804 70.86383327 40.6875 69.5 C39.80126953 69.20480469 38.91503906 68.90960938 38.00195312 68.60546875 C32.02628498 66.62665523 26.03635341 64.81090602 20 63 C20 74.22 20 85.44 20 97 C12 96 12 96 0 92 C0 61.64 0 31.28 0 0 Z " fill="#EEF0ED" transform="translate(116,77)"/>
<path d="M0 0 C1.0828125 0.3403125 1.0828125 0.3403125 2.1875 0.6875 C2.1875 1.6775 2.1875 2.6675 2.1875 3.6875 C3.8375 3.6875 5.4875 3.6875 7.1875 3.6875 C4.57246392 6.30253608 2.02760649 7.00670197 -1.4375 8.3125 C-7.97606614 10.83312285 -14.21638924 13.76273936 -20.44384766 16.97119141 C-23.84680571 18.72275236 -27.22800768 20.34159867 -30.8125 21.6875 C-26.47783208 16.21936107 -22.00951159 12.34088951 -16.25 8.4375 C-15.50814453 7.921875 -14.76628906 7.40625 -14.00195312 6.875 C-3.49130574 -0.38792286 -3.49130574 -0.38792286 0 0 Z " fill="#24606F" transform="translate(306.8125,238.3125)"/>
<path d="M0 0 C0.33 0 0.66 0 1 0 C1.33 46.86 1.66 93.72 2 142 C4.64 142 7.28 142 10 142 C7 144 7 144 0 145 C0 97.15 0 49.3 0 0 Z " fill="#346570" transform="translate(18,130)"/>
<path d="M0 0 C10 1 10 1 14 4 C11.69 4.33 9.38 4.66 7 5 C6.67 4.34 6.34 3.68 6 3 C4.35636866 2.27840576 2.68949614 1.60648579 1 1 C1.10738467 12.30891161 1.21999409 23.61775782 1.33933926 34.92654991 C1.3945859 40.1772486 1.44800869 45.42795284 1.49731445 50.67871094 C1.54493231 55.74266142 1.59727417 60.80654274 1.65294075 65.87041092 C1.67337601 67.80575471 1.69208712 69.74111747 1.70907402 71.6764946 C1.73309213 74.37994012 1.76315019 77.08325422 1.79467773 79.78662109 C1.8004332 80.59294479 1.80618866 81.39926849 1.81211853 82.23002625 C1.77718743 86.24573005 1.77718743 86.24573005 3 90 C3.99 90.33 4.98 90.66 6 91 C6 91.66 6 92.32 6 93 C4.02 92.67 2.04 92.34 0 92 C0 61.64 0 31.28 0 0 Z " fill="#D5ECCC" transform="translate(116,77)"/>
<path d="M0 0 C2.64 0 5.28 0 8 0 C8.33 0.66 8.66 1.32 9 2 C11.05175405 2.65151097 11.05175405 2.65151097 13.4375 3.0625 C17.832021 3.9160105 17.832021 3.9160105 20 5 C20 5.66 20 6.32 20 7 C20.84304687 7.02578125 21.68609375 7.0515625 22.5546875 7.078125 C24.19824219 7.16320312 24.19824219 7.16320312 25.875 7.25 C26.96554688 7.29640625 28.05609375 7.3428125 29.1796875 7.390625 C32 8 32 8 33.3828125 10.046875 C33.58648437 10.69140625 33.79015625 11.3359375 34 12 C26.90583211 11.01090928 20.50622498 8.84361879 13.88671875 6.20849609 C9.31245194 4.40640845 4.79194522 3.10993831 0 2 C0 1.34 0 0.68 0 0 Z " fill="#DCEFD6" transform="translate(136,138)"/>
<path d="M0 0 C0.99 0.33 1.98 0.66 3 1 C0.45870221 2.75053767 -2.08302577 4.50044506 -4.625 6.25 C-5.33785156 6.74113281 -6.05070312 7.23226562 -6.78515625 7.73828125 C-10.83554752 10.52524772 -14.90119913 13.28470605 -19 16 C-18.875 13.1875 -18.875 13.1875 -18 10 C-15.0625 8.25 -15.0625 8.25 -12 7 C-11.34 6.34 -10.68 5.68 -10 5 C-9.01 5 -8.02 5 -7 5 C-7 4.34 -7 3.68 -7 3 C-5.5459375 2.5359375 -5.5459375 2.5359375 -4.0625 2.0625 C-1.15934208 1.30476658 -1.15934208 1.30476658 0 0 Z " fill="#235E69" transform="translate(294,228)"/>
<path d="M0 0 C0.95139197 3.10684065 1.01111621 5.54505121 0.66015625 8.765625 C0.56669922 9.65507812 0.47324219 10.54453125 0.37695312 11.4609375 C0.22129883 12.84152344 0.22129883 12.84152344 0.0625 14.25 C-0.03740234 15.18585938 -0.13730469 16.12171875 -0.24023438 17.0859375 C-0.48724564 19.39137599 -0.74071115 21.69591548 -1 24 C-1.66 24 -2.32 24 -3 24 C-3.33 25.32 -3.66 26.64 -4 28 C-4.67886067 18.04337678 -2.69430667 9.47818596 0 0 Z " fill="#C2D5DE" transform="translate(286,122)"/>
<path d="M0 0 C-2 3 -2 3 -4.1640625 3.51171875 C-4.97617187 3.56972656 -5.78828125 3.62773438 -6.625 3.6875 C-7.85089844 3.78611328 -7.85089844 3.78611328 -9.1015625 3.88671875 C-9.72804688 3.92410156 -10.35453125 3.96148437 -11 4 C-11 4.66 -11 5.32 -11 6 C-11.66 6 -12.32 6 -13 6 C-13 6.66 -13 7.32 -13 8 C-14.98 8.33 -16.96 8.66 -19 9 C-14.02076792 3.37828636 -7.81521464 -2.22898727 0 0 Z " fill="#2F6273" transform="translate(332,101)"/>
<path d="M0 0 C0.66 0 1.32 0 2 0 C2 5.61 2 11.22 2 17 C-3.625 17 -3.625 17 -7 14 C-4.69 14 -2.38 14 0 14 C0 9.38 0 4.76 0 0 Z " fill="#C2E3B7" transform="translate(177,136)"/>
<path d="M0 0 C0.99 0.66 1.98 1.32 3 2 C1.58774074 2.67595315 0.16997095 3.34040059 -1.25 4 C-2.43335938 4.556875 -2.43335938 4.556875 -3.640625 5.125 C-6 6 -6 6 -10 6 C-10 5.34 -10 4.68 -10 4 C-9.01 4 -8.02 4 -7 4 C-7.33 2.68 -7.66 1.36 -8 0 C-4.65649854 -1.11450049 -3.33342063 -0.91669067 0 0 Z " fill="#DDE8E9" transform="translate(338,173)"/>
<path d="M0 0 C2.58651922 0.59249336 5.16860151 1.19841299 7.75 1.8125 C8.47960937 1.97814453 9.20921875 2.14378906 9.9609375 2.31445312 C13.93718044 3.2723662 16.90800089 4.16024292 20 7 C16.61020035 8.12993322 16.01964117 7.88521113 12.8125 6.6875 C8.57978823 5.17482596 4.37332129 4.03369412 0 3 C0 2.01 0 1.02 0 0 Z " fill="#6EAC5B" transform="translate(116,169)"/>
<path d="M0 0 C0.93423645 3.01031744 1.04449911 3.86650268 0 7 C-0.1482833 9.8259376 -0.23101438 12.61101649 -0.25 15.4375 C-0.2809375 16.5831543 -0.2809375 16.5831543 -0.3125 17.75195312 C-0.34480239 22.36890878 -0.34480239 22.36890878 1.515625 26.53515625 C2.00546875 27.01855469 2.4953125 27.50195312 3 28 C2.67 28.66 2.34 29.32 2 30 C1.01 29.34 0.02 28.68 -1 28 C-1 27.34 -1 26.68 -1 26 C-1.66 26 -2.32 26 -3 26 C-2.88928305 22.79100859 -2.75885687 19.58310291 -2.625 16.375 C-2.5940625 15.47136719 -2.563125 14.56773437 -2.53125 13.63671875 C-2.31706465 8.74615328 -1.87645845 4.59198368 0 0 Z " fill="#B4CAD4" transform="translate(302,126)"/>
<path d="M0 0 C1.58246707 -0.08153933 3.16616273 -0.13943557 4.75 -0.1875 C6.07257813 -0.23970703 6.07257813 -0.23970703 7.421875 -0.29296875 C10.49382544 0.05611653 11.64416108 1.06898449 14 3 C16.31347872 3.73260159 18.645752 4.411438 21 5 C20.67 5.66 20.34 6.32 20 7 C15.57916835 6.2531799 11.41843259 4.88289994 7.1875 3.4375 C6.49462891 3.20353516 5.80175781 2.96957031 5.08789062 2.72851562 C3.39099886 2.15508324 1.69536922 1.57791831 0 1 C0 0.67 0 0.34 0 0 Z " fill="#72A75F" transform="translate(155,88)"/>
<path d="M0 0 C2.9375 0.75 2.9375 0.75 6 2 C6.37120147 3.32329073 6.69905415 4.65898528 7 6 C8.28862676 8.0764316 8.28862676 8.0764316 9.875 10.0625 C10.38804687 10.73410156 10.90109375 11.40570313 11.4296875 12.09765625 C12.94210697 14.00626409 12.94210697 14.00626409 14.6328125 15.55859375 C16 17 16 17 17 20 C16.34 20 15.68 20 15 20 C13.31640268 17.99160249 11.74129864 15.98029418 10.1875 13.875 C9.32807135 12.72562794 8.46739687 11.57718636 7.60546875 10.4296875 C7.18056152 9.86217773 6.7556543 9.29466797 6.31787109 8.70996094 C4.98154628 6.97605597 3.59137592 5.30238591 2.17578125 3.6328125 C0 1 0 1 0 0 Z " fill="#62A94C" transform="translate(223,260)"/>
<path d="M0 0 C7.53216715 0.44238385 14.6802723 1.13905228 22 3 C22 3.33 22 3.66 22 4 C16.41019811 4.10546796 10.9802202 3.78360487 5.41796875 3.21875 C2.90667426 2.95494973 2.90667426 2.95494973 0 3 C0 2.01 0 1.02 0 0 Z " fill="#2A5F6B" transform="translate(125,247)"/>
<path d="M0 0 C1.32 0.33 2.64 0.66 4 1 C2.85821872 2.66944521 1.71147095 4.3354948 0.5625 6 C-0.07558594 6.928125 -0.71367187 7.85625 -1.37109375 8.8125 C-1.90863281 9.534375 -2.44617188 10.25625 -3 11 C-3.33 11 -3.66 11 -4 11 C-4 7.7 -4 4.4 -4 1 C-3.34 1.66 -2.68 2.32 -2 3 C-1.34 2.01 -0.68 1.02 0 0 Z " fill="#246667" transform="translate(244,271)"/>
<path d="M0 0 C2.62875378 0.22754589 5.25046959 0.48081739 7.875 0.75 C8.62136719 0.811875 9.36773437 0.87375 10.13671875 0.9375 C12.3046875 1.171875 12.3046875 1.171875 16 2 C17.5078125 4.078125 17.5078125 4.078125 18 6 C11.68878497 4.9007105 5.93661416 3.41862058 0 1 C0 0.67 0 0.34 0 0 Z " fill="#D1EAC8" transform="translate(152,144)"/>
<path d="M0 0 C0 2 0 4 0 6 C-5.875 4.125 -5.875 4.125 -7 3 C-8.66617115 2.95936168 -10.33388095 2.957279 -12 3 C-4.82142857 -1.78571429 -4.82142857 -1.78571429 0 0 Z " fill="#296175" transform="translate(342,140)"/>
<path d="M0 0 C0.5775 0.20625 1.155 0.4125 1.75 0.625 C-2 3.625 -2 3.625 -4.25 3.625 C-4.25 4.285 -4.25 4.945 -4.25 5.625 C-7.91881155 4.91945932 -10.95450534 3.34764494 -14.25 1.625 C-14.25 1.295 -14.25 0.965 -14.25 0.625 C-12.39375 0.934375 -12.39375 0.934375 -10.5 1.25 C-6.40001144 1.78415344 -3.69395141 -0.61565857 0 0 Z " fill="#C9DAE6" transform="translate(358.25,98.375)"/>
<path d="M0 0 C0 0.66 0 1.32 0 2 C0.99 2 1.98 2 3 2 C3 2.66 3 3.32 3 4 C4.65 4 6.3 4 8 4 C8 4.66 8 5.32 8 6 C8.99 6.33 9.98 6.66 11 7 C4.58008874 6.42934122 -1.01589463 4.32655091 -7 2 C-4.35261084 0.5393715 -3.10551666 0 0 0 Z " fill="#7DB369" transform="translate(137,79)"/>
<path d="M0 0 C11.52164009 -0.18451025 11.52164009 -0.18451025 17 1 C15 4 15 4 13.234375 4.80859375 C10.17547608 5.07063229 8.09398554 4.17978003 5.25 3.0625 C3.77273437 2.49208984 3.77273437 2.49208984 2.265625 1.91015625 C1.51796875 1.60980469 0.7703125 1.30945313 0 1 C0 0.67 0 0.34 0 0 Z " fill="#66A652" transform="translate(156,238)"/>
<path d="M0 0 C1.65 0 3.3 0 5 0 C4.01 0.495 4.01 0.495 3 1 C2.53248212 3.35599235 2.53248212 3.35599235 2.375 6.0625 C2.30023438 6.98160156 2.22546875 7.90070313 2.1484375 8.84765625 C2.09945313 9.55792969 2.05046875 10.26820313 2 11 C2.66 11 3.32 11 4 11 C4 11.66 4 12.32 4 13 C2.68 13 1.36 13 0 13 C0 8.71 0 4.42 0 0 Z " fill="#DCEEF6" transform="translate(326,130)"/>
<path d="M0 0 C1.5843317 0.08768248 3.16753567 0.19587329 4.75 0.3125 C6.07257813 0.39951172 6.07257813 0.39951172 7.421875 0.48828125 C10.32303774 1.0641181 11.79225607 2.07596148 14 4 C11.69 4.33 9.38 4.66 7 5 C6.67 4.34 6.34 3.68 6 3 C4.35636866 2.27840576 2.68949614 1.60648579 1 1 C1 2.98 1 4.96 1 7 C0.67 7 0.34 7 0 7 C0 4.69 0 2.38 0 0 Z " fill="#CBE6C5" transform="translate(116,77)"/>
<path d="M0 0 C3.93673644 1.31224548 6.22719294 2.91910327 9 6 C6.69 7.65 4.38 9.3 2 11 C2 10.01 2 9.02 2 8 C2.66 8 3.32 8 4 8 C4 6.68 4 5.36 4 4 C2.68 3.34 1.36 2.68 0 2 C0 1.34 0 0.68 0 0 Z " fill="#D0E0E9" transform="translate(358,87)"/>
<path d="M0 0 C0 0.66 0 1.32 0 2 C-0.639375 2.28875 -1.27875 2.5775 -1.9375 2.875 C-4.15206079 3.82823451 -4.15206079 3.82823451 -5 6 C-6.77734375 6.703125 -6.77734375 6.703125 -8.9375 7.25 C-9.64777344 7.44078125 -10.35804688 7.6315625 -11.08984375 7.828125 C-12.03537109 7.91320312 -12.03537109 7.91320312 -13 8 C-13.66 7.34 -14.32 6.68 -15 6 C-12.87717331 4.99539469 -10.75166979 3.99644398 -8.625 3 C-7.44164062 2.443125 -6.25828125 1.88625 -5.0390625 1.3125 C-2 0 -2 0 0 0 Z " fill="#265C6A" transform="translate(309,60)"/>
<path d="M0 0 C0.33 0.66 0.66 1.32 1 2 C0.34 2 -0.32 2 -1 2 C-1 2.66 -1 3.32 -1 4 C-2.175625 4.37125 -2.175625 4.37125 -3.375 4.75 C-6.13350832 5.72822087 -6.13350832 5.72822087 -7 8.0625 C-7.33 8.701875 -7.66 9.34125 -8 10 C-10.625 10.75 -10.625 10.75 -13 11 C-11.49392117 6.89911064 -9.03811122 5.46490446 -5.375 3.25 C-4.37210937 2.63640625 -3.36921875 2.0228125 -2.3359375 1.390625 C-1.17964844 0.70226562 -1.17964844 0.70226562 0 0 Z " fill="#255B68" transform="translate(279,272)"/>
<path d="M0 0 C2.97 1.98 5.94 3.96 9 6 C4.80104745 7.04973814 2.20594226 6.72795155 -2 6 C-2.33 5.01 -2.66 4.02 -3 3 C-2.01 2.01 -1.02 1.02 0 0 Z " fill="#255C73" transform="translate(291,171)"/>
<path d="M0 0 C0.33 0 0.66 0 1 0 C1.22786458 2.01822917 1.45572917 4.03645833 1.68359375 6.0546875 C1.91292961 8.07404316 1.91292961 8.07404316 3 10 C3.66 10.33 4.32 10.66 5 11 C4.01 12.98 3.02 14.96 2 17 C1.34 16.67 0.68 16.34 0 16 C0 10.72 0 5.44 0 0 Z " fill="#5FA748" transform="translate(179,137)"/>
<path d="M0 0 C6.31121503 1.0992895 12.06338584 2.58137942 18 5 C18 5.33 18 5.66 18 6 C16.56163249 5.88541307 15.12429034 5.75790884 13.6875 5.625 C12.88699219 5.55539063 12.08648437 5.48578125 11.26171875 5.4140625 C9 5 9 5 6 3 C4.0103005 2.60986284 2.00980131 2.26797351 0 2 C0 1.34 0 0.68 0 0 Z " fill="#C8E4C2" transform="translate(160,91)"/>
<path d="M0 0 C6.6772895 0.60702632 12.70127996 2.77631394 19 5 C19 5.33 19 5.66 19 6 C17.39504433 5.88557539 15.79101881 5.75805306 14.1875 5.625 C13.29417969 5.55539063 12.40085938 5.48578125 11.48046875 5.4140625 C9 5 9 5 6 3 C4.01200182 2.29835358 2.01301483 1.62627128 0 1 C0 0.67 0 0.34 0 0 Z " fill="#63A350" transform="translate(128,220)"/>
<path d="M0 0 C0 0.33 0 0.66 0 1 C-6.06815522 2.22899346 -11.79895188 3.27560214 -18 3 C-15.53918698 0.53918698 -14.07732258 0.42257632 -10.6875 -0.1875 C-9.74261719 -0.36667969 -8.79773438 -0.54585937 -7.82421875 -0.73046875 C-4.9538096 -1.00440821 -2.77832133 -0.71355794 0 0 Z " fill="#275B69" transform="translate(376,201)"/>
<path d="M0 0 C1.41750563 0.11509661 2.83401169 0.24253658 4.25 0.375 C5.03890625 0.44460937 5.8278125 0.51421875 6.640625 0.5859375 C9.085877 1.01507113 10.84836903 1.78600638 13 3 C6.84765625 3.87890625 6.84765625 3.87890625 5 4 C4.67 3.67 4.34 3.34 4 3 C3.67 3.66 3.34 4.32 3 5 C2.01 5 1.02 5 0 5 C0 3.35 0 1.7 0 0 Z " fill="#68AB54" transform="translate(137,101)"/>
<path d="M0 0 C5.28 1.32 10.56 2.64 16 4 C16 4.33 16 4.66 16 5 C13.89521396 4.88590318 11.79115423 4.75834639 9.6875 4.625 C8.51574219 4.55539063 7.34398437 4.48578125 6.13671875 4.4140625 C3 4 3 4 0 2 C0 1.34 0 0.68 0 0 Z " fill="#72AD60" transform="translate(150,104)"/>
<path d="M0 0 C1.60568666 0.28317926 3.20952047 0.57687791 4.8125 0.875 C6.15248047 1.11863281 6.15248047 1.11863281 7.51953125 1.3671875 C10 2 10 2 13 4 C9.37 4 5.74 4 2 4 C1.34 2.68 0.68 1.36 0 0 Z " fill="#6DAC59" transform="translate(160,148)"/>
<path d="M0 0 C5.69139902 1.09698167 10.74567937 2.54053077 16 5 C16 5.33 16 5.66 16 6 C8.57142857 6.28571429 8.57142857 6.28571429 5 4 C5 3.34 5 2.68 5 2 C3.35 1.67 1.7 1.34 0 1 C0 0.67 0 0.34 0 0 Z " fill="#CDE8C5" transform="translate(141,124)"/>
<path d="M0 0 C0.66 0.33 1.32 0.66 2 1 C1.52797514 5.24822374 -0.96655518 7.19989709 -4 10 C-4.66 9.67 -5.32 9.34 -6 9 C-4.02 6.03 -2.04 3.06 0 0 Z " fill="#245D69" transform="translate(246,105)"/>
<path d="M0 0 C-3.10293734 1.67250523 -6.17739446 2.77361582 -9.5625 3.75 C-10.98755859 4.17539063 -10.98755859 4.17539063 -12.44140625 4.609375 C-15 5 -15 5 -18 3 C-16.12743583 2.49095343 -14.25180659 1.99317545 -12.375 1.5 C-11.33085937 1.2215625 -10.28671875 0.943125 -9.2109375 0.65625 C-6.04312582 0.00881404 -3.22258533 -0.1161292 0 0 Z " fill="#2A5F70" transform="translate(330,237)"/>
<path d="M0 0 C0 0.66 0 1.32 0 2 C-0.99 2.33 -1.98 2.66 -3 3 C-3.61875 3.680625 -4.2375 4.36125 -4.875 5.0625 C-7 7 -7 7 -9.75 7.25 C-10.4925 7.1675 -11.235 7.085 -12 7 C-12 6.34 -12 5.68 -12 5 C-10.37750059 4.16180842 -8.75191503 3.3295884 -7.125 2.5 C-6.22007812 2.0359375 -5.31515625 1.571875 -4.3828125 1.09375 C-2 0 -2 0 0 0 Z " fill="#376976" transform="translate(349,171)"/>
<path d="M0 0 C0.66 0 1.32 0 2 0 C2 0.66 2 1.32 2 2 C0.5437455 2.67119549 -0.91507867 3.33681807 -2.375 4 C-3.59316406 4.556875 -3.59316406 4.556875 -4.8359375 5.125 C-7 6 -7 6 -9 6 C-9 4.68 -9 3.36 -9 2 C-6.94921875 1.77213542 -4.8984375 1.54427083 -2.84765625 1.31640625 C-0.98859771 1.18113386 -0.98859771 1.18113386 0 0 Z " fill="#255868" transform="translate(340,158)"/>
<path d="M0 0 C4.62 0 9.24 0 14 0 C11.91371585 2.08628415 10.88879073 2.57193628 8.125 3.375 C7.10792969 3.69597656 7.10792969 3.69597656 6.0703125 4.0234375 C4 4 4 4 0 0 Z " fill="#2E6574" transform="translate(314,86)"/>
<path d="M0 0 C0.33 0.66 0.66 1.32 1 2 C1.66 2.33 2.32 2.66 3 3 C3.625 6.0625 3.625 6.0625 4 9 C0.73310335 7.36655167 -2.34697709 5.30604582 -4 2 C-2.68 1.34 -1.36 0.68 0 0 Z " fill="#286272" transform="translate(364,85)"/>
<path d="M0 0 C3.3 0 6.6 0 10 0 C10 0.99 10 1.98 10 3 C10.66 3.33 11.32 3.66 12 4 C7.80530429 3.40075776 3.99000166 2.42500059 0 1 C0 0.67 0 0.34 0 0 Z " fill="#D9EFD4" transform="translate(160,106)"/>
<path d="M0 0 C3.36720387 1.39332574 4.9859524 2.9789286 7 6 C4.36 5.34 1.72 4.68 -1 4 C-0.67 2.68 -0.34 1.36 0 0 Z " fill="#1A5A66" transform="translate(218,286)"/>
<path d="M0 0 C6.93 0.495 6.93 0.495 14 1 C14 1.33 14 1.66 14 2 C7.565 2.495 7.565 2.495 1 3 C0.67 2.01 0.34 1.02 0 0 Z " fill="#65A44F" transform="translate(91,213)"/>
<path d="M0 0 C3.63 0.33 7.26 0.66 11 1 C11.33 1.99 11.66 2.98 12 4 C7.6822542 3.49202991 3.96697886 2.80317221 0 1 C0 0.67 0 0.34 0 0 Z " fill="#7DB36C" transform="translate(152,127)"/>
<path d="M0 0 C4.55737263 0.43820891 7.57653445 0.85041169 11 4 C7.25 5.125 7.25 5.125 5 4 C5 3.34 5 2.68 5 2 C3.35 1.67 1.7 1.34 0 1 C0 0.67 0 0.34 0 0 Z " fill="#2C5C6D" transform="translate(339,99)"/>
<path d="M0 0 C4.455 1.98 4.455 1.98 9 4 C9 4.33 9 4.66 9 5 C6.36 5 3.72 5 1 5 C0.67 3.35 0.34 1.7 0 0 Z " fill="#63AA4B" transform="translate(185,67)"/>
<path d="M0 0 C0.86625 0.7115625 0.86625 0.7115625 1.75 1.4375 C3.92582084 2.9484867 5.42602448 3.54036151 8 4 C6.68 4.33 5.36 4.66 4 5 C4 5.66 4 6.32 4 7 C3.34 7 2.68 7 2 7 C0.5393715 4.35261084 0 3.10551666 0 0 Z " fill="#235E72" transform="translate(235,302)"/>
<path d="M0 0 C3.79303725 1.00193437 6.71536341 1.81024227 10 4 C7.36 4 4.72 4 2 4 C1.34 2.68 0.68 1.36 0 0 Z " fill="#6EA85C" transform="translate(166,109)"/>
<path d="M0 0 C2.475 0.495 2.475 0.495 5 1 C5.33 1.99 5.66 2.98 6 4 C6.66 4 7.32 4 8 4 C8.33 5.32 8.66 6.64 9 8 C7.68388323 7.04663979 6.37221039 6.08714226 5.0625 5.125 C4.33160156 4.59132812 3.60070312 4.05765625 2.84765625 3.5078125 C1 2 1 2 0 0 Z " fill="#62AA4C" transform="translate(208,246)"/>
<path d="M0 0 C0.99 0.33 1.98 0.66 3 1 C2.67 2.32 2.34 3.64 2 5 C1.01 5 0.02 5 -1 5 C-1.33 5.99 -1.66 6.98 -2 8 C-2.33 7.34 -2.66 6.68 -3 6 C-2.06553465 3.96855359 -1.06775224 1.96466413 0 0 Z " fill="#426E7B" transform="translate(306,118)"/>
<path d="M0 0 C0.66 0.33 1.32 0.66 2 1 C1.25 2.9375 1.25 2.9375 0 5 C-2.49470772 5.96569331 -4.29745539 6 -7 6 C-4.69 4.02 -2.38 2.04 0 0 Z " fill="#C8D9E0" transform="translate(309,95)"/>
<path d="M0 0 C-0.375 1.9375 -0.375 1.9375 -1 4 C-1.99 4.495 -1.99 4.495 -3 5 C-5.125 4.0625 -5.125 4.0625 -7 3 C-2.25 0 -2.25 0 0 0 Z " fill="#CEE0E6" transform="translate(318,91)"/>
<path d="M0 0 C2.31 0 4.62 0 7 0 C6.67 0.66 6.34 1.32 6 2 C3.67843403 2.40729228 1.3431213 2.74438677 -1 3 C-0.67 2.01 -0.34 1.02 0 0 Z " fill="#225264" transform="translate(327,126)"/>
<path d="M0 0 C0.66 0 1.32 0 2 0 C1.65120368 3.25543229 0.97866739 4.01873107 -1.5625 6.25 C-2.366875 6.8275 -3.17125 7.405 -4 8 C-3.6875 6.0625 -3.6875 6.0625 -3 4 C-2.01 3.67 -1.02 3.34 0 3 C0 2.01 0 1.02 0 0 Z " fill="#366472" transform="translate(300,99)"/>
<path d="M0 0 C1.62490954 -0.02698189 3.24994633 -0.04638757 4.875 -0.0625 C5.77992188 -0.07410156 6.68484375 -0.08570312 7.6171875 -0.09765625 C10 0 10 0 12 1 C12 1.66 12 2.32 12 3 C6.06 2.01 6.06 2.01 0 1 C0 0.67 0 0.34 0 0 Z " fill="#67A94E" transform="translate(155,88)"/>
<path d="M0 0 C0.66 0 1.32 0 2 0 C2 1.98 2 3.96 2 6 C0.35 5.67 -1.3 5.34 -3 5 C-1.625 2.5 -1.625 2.5 0 0 Z " fill="#275C76" transform="translate(458,269)"/>
<path d="M0 0 C0.66 1.32 1.32 2.64 2 4 C0.03533587 5.06775224 -1.96855359 6.06553465 -4 7 C-4.66 6.67 -5.32 6.34 -6 6 C-4.02 4.02 -2.04 2.04 0 0 Z " fill="#3F6B76" transform="translate(282,253)"/>
<path d="M0 0 C-1.36983503 3.16115776 -1.9890638 3.9927092 -5 6 C-5 5.34 -5 4.68 -5 4 C-5.66 3.67 -6.32 3.34 -7 3 C-2.25 0 -2.25 0 0 0 Z " fill="#2D5D6B" transform="translate(363,163)"/>
<path d="" fill="#586E6C" transform="translate(0,0)"/>
<path d="" fill="#649158" transform="translate(0,0)"/>
</svg>
